<svg id="visual" viewBox="0 0 1920 1080" width="1920" height="1080" xmlns="http://www.w3.org/2000/svg" xmlns:xlink="http://www.w3.org/1999/xlink" version="1.1"><rect x="0" y="0" width="1920" height="1080" fill="#444444"></rect><path d="M0 354L53.3 368.7C106.7 383.3 213.3 412.7 320 387.5C426.7 362.3 533.3 282.7 640 287.7C746.7 292.7 853.3 382.3 960 415.2C1066.7 448 1173.3 424 1280 382C1386.7 340 1493.3 280 1600 266.7C1706.7 253.3 1813.3 286.7 1866.7 303.3L1920 320L1920 0L1866.7 0C1813.3 0 1706.7 0 1600 0C1493.3 0 1386.7 0 1280 0C1173.3 0 1066.7 0 960 0C853.3 0 746.7 0 640 0C533.3 0 426.7 0 320 0C213.3 0 106.7 0 53.3 0L0 0Z" fill="#DA0037" stroke-linecap="round" stroke-linejoin="miter"></path></svg>